{"title":"American.Gangster.2007.UNRATED.720p.BRRip.x264.AAC.mp4-Zen_Bud","uid":6459091,"size":1545369260,"categoryP":"video","categoryS":"hd___movies","magnet":"?xt=urn:btih:c14394740ae56ec8020c6e0c0914c79236de78cf&amp;dn=American.Gangster.2007.UNRATED.720p.BRRip.x264.AAC.mp4-Zen_Bud&amp;tr=udp%3A%2F%2Ftracker.openbittorrent.com%3A80&amp;tr=udp%3A%2F%2Fopen.demonii.com%3A1337&amp;tr=udp%3A%2F%2Ftracker.coppersurfer.tk%3A6969&amp;tr=udp%3A%2F%2Fexodus.desync.com%3A6969","seeders":1,"leechers":1,"uploader":"Zen_Bud","files":-1,"time":1307694541,"description":"       American.Gangster.2007.UNRATED.720p.BRRip.x264.AAC.mp4-Zen_Bud\n\nFormat                           : MPEG-4\nFile size                        : 1.44 GiB\nDuration                         : 2h 55mn\nOverall bit rate                 : 1 172 Kbps\n\n\nVideo\n\nFormat                           : AVC\nFormat profile                   : &lt;a class=&quot;__cf_email__&quot; href=&quot;/cdn-cgi/l/email-protection&quot; data-cfemail=&quot;4800212f2008047b6679&quot;&gt;[email&amp;#160;protected]&lt;/a&gt;&lt;script cf-hash='f9e31' type=&quot;text/javascript&quot;&gt;\n/* &lt;![CDATA[ */!function(){try{var t=&quot;currentScript&quot;in document?document.currentScript:function(){for(var t=document.getElementsByTagName(&quot;script&quot;),e=t.length;e--;)if(t[e].getAttribute(&quot;cf-hash&quot;))return t[e]}();if(t&amp;&amp;t.previousSibling){var e,r,n,i,c=t.previousSibling,a=c.getAttribute(&quot;data-cfemail&quot;);if(a){for(e=&quot;&quot;,r=parseInt(a.substr(0,2),16),n=2;a.length-n;n+=2)i=parseInt(a.substr(n,2),16)^r,e+=String.fromCharCode(i);e=document.createTextNode(e),c.parentNode.replaceChild(e,c)}}}catch(u){}}();/* ]]&gt; */&lt;/script&gt;\nFormat settings, CABAC           : Yes\nFormat settings, ReFrames        : 4 frames\nDuration                         : 2h 55mn\nBit rate                         : 1 007 Kbps\nWidth                            : 1 280 pixels\nHeight                           : 704 pixels\nDisplay aspect ratio             : 16:9\nFrame rate mode                  : Variable\nFrame rate                       : 23.976 fps\nStream size                      : 1.24 GiB (86%)\nWriting library                  : x264 core 115\n\n\nAudio\n\nFormat                           : AAC\nCodec ID                         : 40\nDuration                         : 2h 55mn\nBit rate                         : 160 Kbps\nChannel(s)                       : 2 channels\nChannel positions                : Front: L R\nSampling rate                    : 48.0 KHz\nStream size                      : 201 MiB (14%)\nLanguage                         : English\n\nSubtitel                         : Svenska [.srt ]\n\n===========================================================================\n\nIn 1970s America, a detective works to bring down the drug empire of Frank Lucas, a heroin kingpin from Manhattan, who is smuggling the drug into the country from the Far East\n\n===========================================================================\n\n","torrent":{"xt":"urn:btih:c14394740ae56ec8020c6e0c0914c79236de78cf","amp;dn":"American.Gangster.2007.UNRATED.720p.BRRip.x264.AAC.mp4-Zen_Bud","amp;tr":["udp%3A%2F%2Ftracker.openbittorrent.com%3A80","udp%3A%2F%2Fopen.demonii.com%3A1337","udp%3A%2F%2Ftracker.coppersurfer.tk%3A6969","udp%3A%2F%2Fexodus.desync.com%3A6969"],"infoHash":"c14394740ae56ec8020c6e0c0914c79236de78cf","infoHashBuffer":{"type":"Buffer","data":[193,67,148,116,10,229,110,200,2,12,110,12,9,20,199,146,54,222,120,207]},"announce":[],"urlList":[]}}